<?xml version="1.0" encoding="utf-8"?>
<svg fill="currentColor" viewBox="0 0 24 24" aria-hidden="true" xmlns="http://www.w3.org/2000/svg">
  <defs>
    <linearGradient gradientUnits="userSpaceOnUse" x1="17.232" y1="7.537" x2="17.232" y2="16.453" id="gradient-0">
      <stop offset="0" style="stop-color: rgba(125, 229, 241, 0.8)"/>
      <stop offset="1" style="stop-color: rgba(33, 211, 231, 0.8)"/>
    </linearGradient>
    <linearGradient gradientUnits="userSpaceOnUse" x1="12" y1="2.558" x2="12" y2="21.442" id="gradient-1" spreadMethod="pad" gradientTransform="matrix(0.027033, 0.999634, -0.564852, 0.015275, 13.156053, -0.374467)">
      <stop offset="0" style="stop-color: rgba(60, 183, 214, 0.83)"/>
      <stop offset="1" style="stop-color: rgba(30, 120, 142, 0.83)"/>
    </linearGradient>
  </defs>
  <path d="M13.5 4.06c0-1.336-1.616-2.005-2.56-1.06l-4.5 4.5H4.508c-1.141 0-2.318.664-2.66 1.905A9.76 9.76 0 001.5 12c0 .898.121 1.768.35 2.595.341 1.24 1.518 1.905 2.659 1.905h1.93l4.5 4.5c.945.945 2.561.276 2.561-1.06V4.06zM18.584 5.106a.75.75 0 011.06 0c3.808 3.807 3.808 9.98 0 13.788a.75.75 0 11-1.06-1.06 8.25 8.25 0 000-11.668.75.75 0 010-1.06z" style="paint-order: fill; fill: url(#gradient-1); fill-opacity: 0.74;"/>
  <path d="M15.932 7.757a.75.75 0 011.061 0 6 6 0 010 8.486.75.75 0 01-1.06-1.061 4.5 4.5 0 000-6.364.75.75 0 010-1.06z" style="fill: url(#gradient-0);"/>
</svg>